<svg width="30.000000pt" height="36.000000pt" viewBox="0 0 30.000000 36.000000"
 preserveAspectRatio="xMidYMid meet">
<g transform="translate(0.000000,36.000000) scale(0.100000,-0.100000)"
fill="#000000" stroke="none">
<path d="M108 330 c-20 -16 -50 -51 -67 -77 -25 -38 -31 -57 -31 -102 0 -59
23 -111 57 -130 17 -8 18 -6 15 23 -4 35 24 102 52 126 14 11 20 10 37 -6 33
-30 51 -73 47 -114 -3 -34 -2 -37 15 -28 56 30 74 136 36 215 -18 37 -100 123
-118 123 -4 0 -23 -13 -43 -30z m83 -27 c52 -47 88 -117 84 -163 -4 -55 -5
-56 -16 -40 -9 12 -10 11 -6 -7 9 -39 -7 -25 -29 26 -27 62 -63 88 -93 69 -12
-7 -33 -37 -49 -65 -25 -49 -49 -74 -35 -36 4 11 3 14 -5 9 -7 -4 -13 -4 -13
1 -9 62 -7 81 12 117 25 48 79 107 91 100 5 -3 8 -2 7 3 -6 32 4 30 52 -14z"/>
</g>
</svg>
